<?xml version="1.0" standalone="no"?>
<!DOCTYPE svg PUBLIC "-//W3C//DTD SVG 20010904//EN"
 "http://www.w3.org/TR/2001/REC-SVG-20010904/DTD/svg10.dtd">
<svg version="1.0" xmlns="http://www.w3.org/2000/svg"
 width="1041.000000pt" height="1041.000000pt" viewBox="0 0 1041.000000 1041.000000"
 preserveAspectRatio="xMidYMid meet">
<metadata>
Created by potrace 1.11, written by Peter Selinger 2001-2013
</metadata>
<g transform="translate(0.000000,1041.000000) scale(0.100000,-0.100000)"
fill="#000000" stroke="none">
<path d="M2505 8981 c-11 -5 -29 -19 -40 -31 -20 -22 -20 -38 -23 -3726 -2
-3300 0 -3708 13 -3734 32 -62 3 -60 799 -60 l726 0 2 1649 3 1650 29 30 28
29 787 5 c860 4 878 6 1118 67 1173 303 1846 1534 1468 2686 -262 799 -966
1357 -1810 1434 -133 12 -3070 13 -3100 1z m3017 -1159 c246 -67 443 -207 574
-408 110 -169 157 -325 157 -524 -1 -178 -33 -309 -113 -457 -124 -231 -328
-394 -591 -475 -74 -22 -79 -22 -779 -26 -388 -1 -715 0 -728 3 -12 3 -31 20
-42 38 -19 31 -20 55 -20 905 0 945 -2 913 53 944 24 14 681 27 1167 23 213
-2 255 -5 322 -23z"/>
<path d="M7345 5132 c-86 -111 -264 -285 -382 -374 -159 -119 -365 -234 -528
-293 -27 -10 -52 -20 -53 -21 -2 -1 14 -26 36 -56 134 -178 202 -408 189 -637
-24 -418 -300 -746 -717 -855 -158 -41 -271 -46 -957 -46 l-643 0 0 -710 0
-710 699 0 c397 0 754 5 827 10 811 66 1534 563 1900 1305 88 179 124 276 169
450 153 595 59 1192 -270 1724 -43 70 -171 248 -204 283 -4 4 -33 -27 -66 -70z"/>
</g>
</svg>
